<svg width="133" height="27" viewBox="0 0 133 27" fill="none" xmlns="http://www.w3.org/2000/svg">
<path d="M54.0254 5.16992H46.3438V26H40.1738V5.16992H32.6328V0.40625H54.0254V5.16992Z" fill="white"/>
<path d="M51.9688 16.3145C51.9688 14.416 52.3379 12.7285 53.0762 11.252C53.8145 9.76367 54.875 8.62109 56.2578 7.82422C57.6406 7.02734 59.2637 6.62891 61.127 6.62891C63.9746 6.62891 66.2188 7.51367 67.8594 9.2832C69.5 11.041 70.3203 13.4375 70.3203 16.4727V16.6836C70.3203 19.6484 69.4941 22.0039 67.8418 23.75C66.2012 25.4844 63.9746 26.3516 61.1621 26.3516C58.4551 26.3516 56.2812 25.543 54.6406 23.9258C53 22.2969 52.1152 20.0938 51.9863 17.3164L51.9688 16.3145ZM57.8926 16.6836C57.8926 18.4414 58.168 19.7305 58.7188 20.5508C59.2695 21.3711 60.084 21.7812 61.1621 21.7812C63.2715 21.7812 64.3496 20.1582 64.3965 16.9121V16.3145C64.3965 12.9043 63.3066 11.1992 61.127 11.1992C59.1465 11.1992 58.0742 12.6699 57.9102 15.6113L57.8926 16.6836Z" fill="white"/>
<path d="M73.2031 26V0.40625H81.4473C83.709 0.40625 85.7422 0.921875 87.5469 1.95312C89.3516 2.97266 90.7578 4.41992 91.7656 6.29492C92.7852 8.1582 93.3008 10.25 93.3125 12.5703V13.748C93.3125 16.0918 92.8145 18.1953 91.8184 20.0586C90.834 21.9102 89.4395 23.3633 87.6348 24.418C85.8418 25.4609 83.8379 25.9883 81.623 26H73.2031ZM79.373 5.16992V21.2539H81.5176C83.2871 21.2539 84.6465 20.627 85.5957 19.373C86.5449 18.1074 87.0195 16.2324 87.0195 13.748V12.6406C87.0195 10.168 86.5449 8.30469 85.5957 7.05078C84.6465 5.79688 83.2637 5.16992 81.4473 5.16992H79.373Z" fill="white"/>
<path d="M95.457 16.3145C95.457 14.416 95.8262 12.7285 96.5645 11.252C97.3027 9.76367 98.3633 8.62109 99.7461 7.82422C101.129 7.02734 102.752 6.62891 104.615 6.62891C107.463 6.62891 109.707 7.51367 111.348 9.2832C112.988 11.041 113.809 13.4375 113.809 16.4727V16.6836C113.809 19.6484 112.982 22.0039 111.33 23.75C109.689 25.4844 107.463 26.3516 104.65 26.3516C101.943 26.3516 99.7695 25.543 98.1289 23.9258C96.4883 22.2969 95.6035 20.0938 95.4746 17.3164L95.457 16.3145ZM101.381 16.6836C101.381 18.4414 101.656 19.7305 102.207 20.5508C102.758 21.3711 103.572 21.7812 104.65 21.7812C106.76 21.7812 107.838 20.1582 107.885 16.9121V16.3145C107.885 12.9043 106.795 11.1992 104.615 11.1992C102.635 11.1992 101.562 12.6699 101.398 15.6113L101.381 16.6836Z" fill="white"/>
<path d="M126.377 20.6562C126.377 20.1523 126.113 19.748 125.586 19.4434C125.059 19.1387 124.057 18.8223 122.58 18.4941C121.104 18.166 119.885 17.7383 118.924 17.2109C117.963 16.6719 117.23 16.0215 116.727 15.2598C116.223 14.498 115.971 13.625 115.971 12.6406C115.971 10.8945 116.691 9.45898 118.133 8.33398C119.574 7.19727 121.461 6.62891 123.793 6.62891C126.301 6.62891 128.316 7.19727 129.84 8.33398C131.363 9.4707 132.125 10.9648 132.125 12.8164H126.184C126.184 11.293 125.381 10.5312 123.775 10.5312C123.154 10.5312 122.633 10.707 122.211 11.0586C121.789 11.3984 121.578 11.8262 121.578 12.3418C121.578 12.8691 121.836 13.2969 122.352 13.625C122.867 13.9531 123.688 14.2227 124.812 14.4336C125.949 14.6445 126.945 14.8965 127.801 15.1895C130.66 16.1738 132.09 17.9375 132.09 20.4805C132.09 22.2148 131.316 23.627 129.77 24.7168C128.234 25.8066 126.242 26.3516 123.793 26.3516C122.164 26.3516 120.711 26.0586 119.434 25.4727C118.156 24.8867 117.16 24.0898 116.445 23.082C115.73 22.0742 115.373 21.0137 115.373 19.9004H120.91C120.934 20.7793 121.227 21.4238 121.789 21.834C122.352 22.2324 123.072 22.4316 123.951 22.4316C124.76 22.4316 125.363 22.2676 125.762 21.9395C126.172 21.6113 126.377 21.1836 126.377 20.6562Z" fill="white"/>
<path d="M4 4.54492H20V8.54492H4V4.54492Z" fill="white"/>
<path d="M4 10.9863H20V14.9863H4V10.9863Z" fill="white"/>
<path d="M4 17.7812H20V21.7812H4V17.7812Z" fill="white"/>
<path d="M22.1845 7.74525L21 6.00391L22.1845 6.46215L25 4.12025L22.1845 7.74525Z" fill="white"/>
<path d="M22.1845 14.1992L21 12.4579L22.1845 12.9161L25 10.5742L22.1845 14.1992Z" fill="white"/>
<path fill-rule="evenodd" clip-rule="evenodd" d="M0 0H28.5V26H0V0ZM2 2V24H26.5V2H2Z" fill="white"/>
</svg>
